<?xml version="1.0" encoding="UTF-8" standalone="no"?>
<!-- Created with Inkscape (http://www.inkscape.org/) -->

<svg
   version="1.1"
   id="svg1"
   width="246.67999"
   height="131.67999"
   viewBox="0 0 246.67999 131.67999"
   sodipodi:docname="logoink.svg"
   inkscape:version="1.4.3 (0d15f75042, 2025-12-25)"
   xmlns:inkscape="http://www.inkscape.org/namespaces/inkscape"
   xmlns:sodipodi="http://sodipodi.sourceforge.net/DTD/sodipodi-0.dtd"
   xmlns="http://www.w3.org/2000/svg"
   xmlns:svg="http://www.w3.org/2000/svg">
  <defs
     id="defs1">
    <clipPath
       clipPathUnits="userSpaceOnUse"
       id="clipPath1">
      <rect
         style="fill:none;stroke:#ff0000;stroke-width:2.89422"
         id="rect2"
         width="296.72397"
         height="137.91513"
         x="11.321845"
         y="116.31945" />
    </clipPath>
  </defs>
  <sodipodi:namedview
     id="namedview1"
     pagecolor="#ffffff"
     bordercolor="#000000"
     borderopacity="0.25"
     inkscape:showpageshadow="2"
     inkscape:pageopacity="0.0"
     inkscape:pagecheckerboard="0"
     inkscape:deskcolor="#d1d1d1"
     inkscape:zoom="2.2857667"
     inkscape:cx="163.84"
     inkscape:cy="196.65174"
     inkscape:window-width="1889"
     inkscape:window-height="958"
     inkscape:window-x="0"
     inkscape:window-y="0"
     inkscape:window-maximized="1"
     inkscape:current-layer="g1" />
  <g
     inkscape:groupmode="layer"
     inkscape:label="Image"
     id="g1"
     style="display:inline">
    <path
       style="fill:#ffffff"
       d="m 43.51594,128.9146 c -0.528,-0.27756 -1.275887,-0.80057 -1.661971,-1.16224 -0.386084,-0.36167 -0.92913,-1.13629 -1.206769,-1.72137 -0.277638,-0.58508 -1.438522,-7.1556 -2.579742,-14.60116 -1.14122,-7.44555 -2.362651,-15.26537 -2.714292,-17.37737 -0.351641,-2.112 -0.636978,-4.560005 -0.634083,-5.440005 0.0029,-0.88 0.274157,-2.896 0.602803,-4.48 0.328646,-1.584 1.051359,-4.0528 1.606029,-5.48622 0.55467,-1.43343 1.598627,-3.51928 2.319906,-4.63524 0.721278,-1.11596 2.171769,-2.8579 3.223312,-3.87099 1.051544,-1.01308 2.762649,-2.35878 3.802456,-2.99042 1.039806,-0.63165 2.716711,-1.43942 3.726454,-1.79503 1.009743,-0.35562 2.771896,-0.84557 3.915896,-1.08878 1.144,-0.24322 3.34452,-0.44471 4.890043,-0.44777 2.13536,-0.004 2.85189,0.10349 2.98432,0.44859 0.0958,0.24978 -0.0627,0.81578 -0.35228,1.25777 -0.2896,0.44199 -0.89106,1.04245 -1.33656,1.33436 -0.44551,0.2919 -2.127502,0.72895 -3.737767,0.97122 -1.610266,0.24226 -3.744488,0.7218 -4.742717,1.06564 -0.998229,0.34384 -2.59734,1.12565 -3.55358,1.73735 -0.95624,0.6117 -2.562608,1.95533 -3.569706,2.98585 -1.251307,1.2804 -2.278629,2.78556 -3.244536,4.75367 -0.777397,1.584 -1.630297,3.73825 -1.895333,4.78723 -0.265036,1.04898 -0.481883,2.23698 -0.481883,2.64 v 0.73277 h 19.228127 19.228125 l -0.21,-1.36 c -0.11551,-0.748 -0.50831,-2.296 -0.87289,-3.44 -0.36459,-1.144 -1.06598,-2.88655 -1.55866,-3.87232 -0.49268,-0.98577 -1.2716,-2.23896 -1.73095,-2.78487 l -0.83518,-0.99255 1.10559,-1.60726 1.1056,-1.60725 1.11326,1.23225 c 0.61229,0.67773 1.50396,1.89892 1.98148,2.71375 0.47753,0.81483 1.15899,2.23678 1.51437,3.15988 0.35538,0.9231 0.91343,2.6005 1.24011,3.72755 0.32669,1.12704 0.74652,3.1633 0.93296,4.52501 0.32378,2.36474 0.21543,3.28501 -2.4149,20.510825 -1.99891,13.09074 -2.93355,18.41362 -3.40923,19.4161 -0.39686,0.83636 -1.1671,1.71989 -1.95279,2.24 l -1.29744,0.85889 -13.783789,0.0834 c -12.040632,0.0729 -13.905199,0.0196 -14.743793,-0.42126 z m 27.944362,-3.90214 c 0.57224,-0.48905 0.9822,-2.68013 3.23545,-17.29251 1.4191,-9.20287 2.58021,-16.90687 2.58024,-17.120005 4e-5,-0.29998 -4.36002,-0.36833 -19.306089,-0.30263 l -19.306143,0.0848 0.740859,4.875155 c 0.407472,2.68132 1.580045,10.30578 2.605718,16.94323 1.463947,9.47366 1.991693,12.20824 2.454827,12.72 0.574937,0.6353 0.917982,0.65191 13.46492,0.65191 11.798898,0 12.929718,-0.0468 13.530218,-0.56 z m -24.713713,-3.51589 c -0.100106,-0.48626 -1.048948,-6.50011 -2.108537,-13.36411 -1.05959,-6.864 -2.01356,-12.948 -2.119933,-13.52 l -0.193405,-1.04 h 15.653607 15.653611 l -0.89376,5.68 c -0.49157,3.124 -1.40154,8.92303 -2.02217,12.88673 -0.62063,3.9637 -1.23849,7.8517 -1.37301,8.64 l -0.2446,1.43327 -11.084895,0.0841 -11.084898,0.0841 z M 15.381117,76.579385 c -1.042152,-0.35839 -2.482152,-1.05681 -3.199999,-1.55203 -0.717848,-0.49523 -1.593177,-1.22192 -1.945177,-1.61488 l -0.6400002,-0.71447 -0.16,1.87723 -0.16,1.87722 h -4.32 -4.32000004 v -23.68 -23.68001 l 4.40000004,-0.089 4.4,-0.089 v 8.68627 8.68627 l 1.3215962,-1.19399 c 0.726878,-0.65669 2.074116,-1.53849 2.993861,-1.95957 0.919746,-0.42107 2.521027,-0.9242 3.558404,-1.11806 1.037376,-0.19386 2.853057,-0.26428 4.034846,-0.15648 1.181789,0.1078 3.1084,0.54434 4.281359,0.97011 1.172959,0.42576 2.931414,1.32424 3.907679,1.99661 0.976264,0.67238 2.382789,1.99686 3.12561,2.9433 0.742821,0.94643 1.726826,2.48917 2.186677,3.42831 0.459852,0.93913 1.070322,2.61377 1.3566,3.72141 0.286278,1.10764 0.526889,3.16589 0.534691,4.57389 0.0078,1.408 -0.173808,3.352 -0.403578,4.32 -0.22977,0.968 -0.900306,2.8168 -1.490079,4.10845 -0.817479,1.79034 -1.625491,2.8939 -3.399992,4.64363 -1.280221,1.26234 -3.024117,2.63386 -3.875324,3.0478 -0.851206,0.41395 -2.291206,0.95061 -3.2,1.19258 -0.908793,0.24197 -2.876351,0.43683 -4.372351,0.43302 -1.887376,-0.005 -3.300027,-0.20639 -4.614823,-0.65855 z m 7.698525,-8.55387 c 0.679964,-0.35034 1.696922,-1.1176 2.259907,-1.70502 0.562984,-0.58743 1.343751,-1.78804 1.735037,-2.66804 0.529778,-1.19147 0.711429,-2.2128 0.711429,-4 0,-1.78098 -0.181745,-2.80814 -0.704639,-3.98239 -0.387551,-0.87031 -1.043001,-2.026 -1.456557,-2.5682 -0.413556,-0.5422 -1.505603,-1.39602 -2.426772,-1.89738 -1.137907,-0.61933 -2.311787,-0.9627 -3.661591,-1.07105 -1.304755,-0.10473 -2.585904,0.0147 -3.732218,0.34795 -1.003574,0.29175 -2.325328,1.00375 -3.109684,1.67513 -0.750312,0.64224 -1.753119,1.90756 -2.228462,2.81182 -0.7529862,1.43244 -0.8643422,2.01491 -0.8649102,4.52412 -5.44e-4,2.40227 0.124122,3.11886 0.7515492,4.32 0.413711,0.792 1.204678,1.92061 1.757705,2.50804 0.553028,0.58742 1.578468,1.36316 2.278757,1.72387 0.700289,0.36071 1.996289,0.74837 2.88,0.86147 0.883711,0.11311 2.274413,0.10462 3.090449,-0.0189 0.816036,-0.12347 2.040036,-0.51113 2.72,-0.86147 z m 29.640953,8.73363 c -0.921439,-0.24816 -2.387248,-0.81194 -3.257353,-1.25286 -0.870106,-0.44091 -1.663643,-0.93375 -1.763417,-1.09519 -0.09977,-0.16143 0.503353,-0.73293 1.34028,-1.26998 0.836927,-0.53706 2.180772,-1.26801 2.986322,-1.62434 0.80555,-0.35634 2.844235,-0.85513 4.530411,-1.10844 1.686176,-0.2533 3.578394,-0.7038 4.204924,-1.00111 0.62652,-0.29731 1.63694,-1.09157 2.24536,-1.76502 0.60843,-0.67345 1.25901,-1.77465 1.44574,-2.4471 0.20784,-0.74849 0.3402,-5.34904 0.34129,-11.86265 l 0.0018,-10.64001 h 4.50451 4.50452 l -0.11562,11.60001 c -0.11263,11.30028 -0.13515,11.6496 -0.87166,13.52 -0.41582,1.056 -1.15464,2.50423 -1.64182,3.2183 -0.48718,0.71407 -1.4688,1.82502 -2.18137,2.46879 -0.71257,0.64376 -2.01834,1.53673 -2.9017,1.98436 -0.88336,0.44763 -2.43078,1.02868 -3.43872,1.29121 -1.07535,0.2801 -3.16016,0.46863 -5.045374,0.45628 -1.767023,-0.0116 -3.966673,-0.2241 -4.888113,-0.47225 z m 39.682426,0.0335 c -0.9201,-0.22295 -2.63965,-0.88129 -3.82122,-1.46298 -1.39519,-0.68685 -2.88409,-1.79725 -4.247089,-3.16742 -1.15433,-1.16039 -2.55465,-2.9738 -3.11183,-4.0298 -0.55718,-1.056 -1.24118,-2.80479 -1.52,-3.88619 -0.27882,-1.08141 -0.50523,-3.24141 -0.50315,-4.8 0.002,-1.5586 0.19576,-3.55456 0.43037,-4.43546 0.23462,-0.88091 0.71621,-2.24891 1.07022,-3.04 0.35401,-0.7911 1.31376,-2.32401 2.13279,-3.40647 0.88912,-1.17511 2.36111,-2.56391 3.653209,-3.44676 1.19023,-0.81325 3.19288,-1.83643 4.45032,-2.27372 1.25744,-0.4373 3.35365,-0.88531 4.65825,-0.99559 1.36478,-0.11537 3.28871,-0.0409 4.530889,0.17545 1.1874,0.20678 2.93631,0.66682 3.88646,1.02232 0.95015,0.35549 2.58964,1.28099 3.64331,2.05666 1.05367,0.77567 2.56691,2.23993 3.36275,3.25392 1.12406,1.43217 1.35891,1.92387 1.05232,2.20322 -0.21708,0.19778 -1.8799,1.24605 -3.69516,2.32949 l -3.30048,1.96989 -1.58008,-1.72886 c -0.90902,-0.99462 -2.15743,-1.96533 -2.93952,-2.28564 -0.837629,-0.34307 -2.230309,-0.56104 -3.628239,-0.56786 -1.71541,-0.008 -2.63164,0.16458 -3.7564,0.70906 -0.81818,0.39608 -2.0544,1.36406 -2.74717,2.15109 -0.69276,0.78702 -1.48638,2.09661 -1.7636,2.9102 -0.27722,0.81359 -0.50263,2.4976 -0.50091,3.74225 0.002,1.69581 0.19065,2.66569 0.75132,3.8697 0.41151,0.88369 1.21874,2.07725 1.79385,2.65236 0.57511,0.57511 1.64102,1.36237 2.36868,1.74946 1.06417,0.5661 1.8552,0.7038 4.04303,0.7038 2.17523,0 2.980729,-0.1388 4.021819,-0.69299 0.71601,-0.38114 1.81321,-1.25902 2.43823,-1.95085 0.62502,-0.69182 1.19241,-1.42587 1.26086,-1.63123 0.0774,-0.2321 1.54616,0.38487 3.88177,1.63055 2.06652,1.10216 3.75732,2.12384 3.75732,2.2704 0,0.14657 -0.42386,0.88254 -0.9419,1.63549 -0.51805,0.75295 -1.74949,2.10709 -2.73654,3.0092 -0.98705,0.90211 -2.6872,2.06087 -3.7781,2.57503 -1.09091,0.51415 -2.74655,1.09395 -3.67921,1.28845 -0.93267,0.19449 -2.948669,0.34138 -4.479999,0.32641 -1.53134,-0.015 -3.53706,-0.20963 -4.45717,-0.43258 z m 69.672909,-0.0342 c -0.968,-0.26821 -2.67633,-0.91487 -3.7963,-1.43702 -1.40909,-0.65694 -2.74728,-1.66391 -4.34452,-3.26918 -1.3818,-1.38875 -2.64765,-3.02621 -3.15395,-4.07982 -0.46516,-0.968 -1.06612,-2.61826 -1.33548,-3.66724 -0.26936,-1.04897 -0.48762,-3.13697 -0.48502,-4.64 0.003,-1.50302 0.21728,-3.63424 0.47706,-4.73605 0.25977,-1.10181 0.89245,-2.83555 1.40593,-3.85276 0.51349,-1.01722 1.63001,-2.62404 2.48116,-3.57072 0.85115,-0.94669 2.31821,-2.21424 3.26014,-2.81678 0.94194,-0.60255 2.73614,-1.44367 3.98712,-1.86915 1.25098,-0.42549 3.43311,-0.85823 4.84919,-0.96165 1.78154,-0.13011 3.314,-0.0313 4.97467,0.32079 1.32,0.27985 3.336,0.96583 4.48,1.52439 1.31408,0.6416 2.79874,1.74482 4.03184,2.99597 1.09396,1.10997 2.38667,2.85057 2.94116,3.9602 0.54412,1.08888 1.2289,3.05671 1.52174,4.37296 0.33575,1.50913 0.49002,3.32703 0.41763,4.92116 -0.0631,1.39039 -0.22209,2.63526 -0.35321,2.76639 -0.13113,0.13113 -5.81858,0.29048 -12.63879,0.35412 -6.8202,0.0636 -12.51079,0.1118 -12.64576,0.10704 -0.13496,-0.005 0.10361,0.67533 0.53016,1.51133 0.42656,0.836 1.18498,1.90828 1.6854,2.38284 0.50041,0.47456 1.58042,1.15937 2.40003,1.52179 0.81961,0.36242 2.3699,0.7509 3.44509,0.86328 1.40278,0.14661 2.53899,0.0462 4.02304,-0.3555 1.46355,-0.39617 2.49096,-0.932 3.51448,-1.83293 0.79548,-0.70021 1.55567,-1.22504 1.68932,-1.1663 0.13366,0.0587 1.71785,0.95001 3.52044,1.98057 1.80259,1.03057 3.27743,1.91695 3.27743,1.96973 0,0.0528 -0.51966,0.72159 -1.1548,1.48624 -0.63514,0.76465 -2.01596,1.99338 -3.06848,2.73052 -1.05252,0.73713 -2.80086,1.65576 -3.8852,2.04139 -1.542,0.5484 -2.87781,0.72631 -6.13152,0.8166 -3.04462,0.0845 -4.63188,-0.0153 -5.92,-0.37221 z m 12.60119,-21.50602 c -0.11605,-0.484 -0.39747,-1.25083 -0.62538,-1.70405 -0.22791,-0.45323 -0.99112,-1.3451 -1.69602,-1.98194 -0.74098,-0.66943 -1.98917,-1.36801 -2.9588,-1.65596 -0.92243,-0.27393 -2.20087,-0.49805 -2.84099,-0.49805 -0.64011,0 -1.91855,0.22412 -2.84098,0.49805 -0.96964,0.28795 -2.21782,0.98653 -2.9588,1.65596 -0.70491,0.63684 -1.49152,1.56373 -1.74803,2.05977 -0.2565,0.49603 -0.60362,1.26285 -0.77136,1.70404 l -0.30499,0.80218 h 8.47818 8.47818 z m -57.574,20.96 c -0.084,-0.22 -0.11549,-10.912 -0.07,-23.76 l 0.0828,-23.35998 h 4.32 4.32 l 0.0834,13.84 c 0.0459,7.61201 0.18987,13.83292 0.32,13.82426 0.13013,-0.009 2.79983,-3.17665 5.93265,-7.04 l 5.69605,-7.02426 h 5.10395 c 2.80718,0 5.10395,0.0717 5.10395,0.15923 0,0.0876 -2.94433,3.70137 -6.54297,8.03065 l -6.54297,7.87141 3.56934,4.52936 c 1.96314,2.49114 5.05018,6.40136 6.86009,8.68936 1.80991,2.288 3.29205,4.268 3.29363,4.4 0.002,0.132 -2.20217,0.24 -4.89725,0.24 h -4.90013 l -0.80908,-0.88 c -0.44499,-0.484 -3.12746,-3.84334 -5.96103,-7.46519 -2.83357,-3.62185 -5.37643,-6.77148 -5.65079,-6.99918 -0.44948,-0.37304 -0.49883,0.36552 -0.49883,7.46518 v 7.87919 h -4.33005 c -3.16924,0 -4.37099,-0.10724 -4.48277,-0.4 z m 69.82615,0.18666 c -0.11734,-0.11733 -0.21334,-1.47145 -0.21334,-3.00915 v -2.79582 l 7.2,-9.76181 c 3.96,-5.36899 7.2,-9.84687 7.2,-9.95084 0,-0.10398 -3.096,-0.18904 -6.88,-0.18904 h -6.88 v -4 -4.00001 h 12.8 12.8 v 2.99928 2.99927 l -5.7997,7.96073 c -3.18984,4.3784 -6.42969,8.78873 -7.19967,9.80073 l -1.39996,1.84 h 7.51967 7.51966 v 4.16 4.16 h -13.22666 c -7.27467,0 -13.32267,-0.096 -13.44,-0.21334 z m 31.04346,0.003 c -0.11924,-0.11924 -0.2168,-1.45796 -0.2168,-2.97493 v -2.75813 l 7.32752,-9.90854 7.32752,-9.90853 -7.00752,-0.0861 -7.00752,-0.0861 v -3.99343 -3.99388 h 12.8 12.8 v 3.07408 3.07407 l -5.54557,7.56593 c -3.05007,4.16126 -6.22351,8.50193 -7.05208,9.64593 l -1.5065,2.08 7.45208,0.16 7.45207,0.16 v 4 4 l -13.3032,0.0835 c -7.31676,0.0459 -13.40076,-0.0141 -13.52,-0.13333 z M 42.231005,65.972455 c -0.131768,-0.396 -0.29984,-5.796 -0.373492,-12 L 41.7236,42.692445 h 4.49617 4.496169 v 9.84163 9.84163 l -1.952998,0.7573 c -1.074149,0.41651 -2.893217,1.38777 -4.042374,2.15837 -1.149156,0.77059 -2.125511,1.40108 -2.169679,1.40108 -0.04417,0 -0.188115,-0.324 -0.319883,-0.72 z"
       id="path20" />
  </g>
  <g
     inkscape:groupmode="layer"
     id="layer1"
     inkscape:label="bg" />
</svg>
